HIERARCHY
ROOT Hips
{
	OFFSET 0.00000 0.00000 0.00000
	CHANNELS 6 Xposition Yposition Zposition Zrotation Yrotation Xrotation 
	JOINT LHipJoint
	{
		OFFSET 0 0 0
		CHANNELS 3 Zrotation Yrotation Xrotation
		JOINT LeftUpLeg
		{
			OFFSET 1.57358 -1.76629 0.73362
			CHANNELS 3 Zrotation Yrotation Xrotation
			JOINT LeftLeg
			{
				OFFSET 2.40600 -6.61045 0.00000
				CHANNELS 3 Zrotation Yrotation Xrotation
				JOINT LeftFoot
				{
					OFFSET 2.66168 -7.31291 0.00000
					CHANNELS 3 Zrotation Yrotation Xrotation
					JOINT LeftToeBase
					{
						OFFSET 0.20870 -0.57341 2.12506
						CHANNELS 3 Zrotation Yrotation Xrotation
						End Site
						{
							OFFSET 0.00000 -0.00000 1.10557
						}
					}
				}
			}
		}
	}
	JOINT RHipJoint
	{
		OFFSET 0 0 0
		CHANNELS 3 Zrotation Yrotation Xrotation
		JOINT RightUpLeg
		{
			OFFSET -1.49299 -1.76629 0.73362
			CHANNELS 3 Zrotation Yrotation Xrotation
			JOINT RightLeg
			{
				OFFSET -2.43663 -6.69460 0.00000
				CHANNELS 3 Zrotation Yrotation Xrotation
				JOINT RightFoot
				{
					OFFSET -2.62959 -7.22474 0.00000
					CHANNELS 3 Zrotation Yrotation Xrotation
					JOINT RightToeBase
					{
						OFFSET -0.25784 -0.70841 2.21862
						CHANNELS 3 Zrotation Yrotation Xrotation
						End Site
						{
							OFFSET -0.00000 -0.00000 1.16452
						}
					}
				}
			}
		}
	}
	JOINT LowerBack
	{
		OFFSET 0 0 0
		CHANNELS 3 Zrotation Yrotation Xrotation
		JOINT Spine
		{
			OFFSET -0.00034 2.12399 -0.25450
			CHANNELS 3 Zrotation Yrotation Xrotation
			JOINT Spine1
			{
				OFFSET 0.05594 2.14379 -0.03318
				CHANNELS 3 Zrotation Yrotation Xrotation
				JOINT Neck
				{
					OFFSET 0 0 0
					CHANNELS 3 Zrotation Yrotation Xrotation
					JOINT Neck1
					{
						OFFSET -0.09835 1.62725 0.24211
						CHANNELS 3 Zrotation Yrotation Xrotation
						JOINT Head
						{
							OFFSET 0.10849 1.66041 -0.22648
							CHANNELS 3 Zrotation Yrotation Xrotation
							End Site
							{
								OFFSET 0.04385 1.68267 -0.10541
							}
						}
					}
				}
				JOINT LeftShoulder
				{
					OFFSET 0 0 0
					CHANNELS 3 Zrotation Yrotation Xrotation
					JOINT LeftArm
					{
						OFFSET 3.29108 0.79398 -0.68179
						CHANNELS 3 Zrotation Yrotation Xrotation
						JOINT LeftForeArm
						{
							OFFSET 5.15310 -0.00000 -0.00000
							CHANNELS 3 Zrotation Yrotation Xrotation
							JOINT LeftHand
							{
								OFFSET 3.75138 -0.00000 -0.00000
								CHANNELS 3 Zrotation Yrotation Xrotation
								JOINT LeftFingerBase
								{
									OFFSET 0 0 0
									CHANNELS 3 Zrotation Yrotation Xrotation
									JOINT LeftHandIndex1
									{
										OFFSET 0.52917 -0.00000 0.00000
										CHANNELS 3 Zrotation Yrotation Xrotation
										End Site
										{
											OFFSET 0.42663 -0.00000 0.00000
										}
									}
								}
								JOINT LThumb
								{
									OFFSET 0 0 0
									CHANNELS 3 Zrotation Yrotation Xrotation
									End Site
									{
										OFFSET 0.43315 -0.00000 0.43315
									}
								}
							}
						}
					}
				}
				JOINT RightShoulder
				{
					OFFSET 0 0 0
					CHANNELS 3 Zrotation Yrotation Xrotation
					JOINT RightArm
					{
						OFFSET -3.07414 1.06285 -0.44338
						CHANNELS 3 Zrotation Yrotation Xrotation
						JOINT RightForeArm
						{
							OFFSET -5.29613 -0.00000 0.00000
							CHANNELS 3 Zrotation Yrotation Xrotation
							JOINT RightHand
							{
								OFFSET -3.76144 -0.00000 -0.00000
								CHANNELS 3 Zrotation Yrotation Xrotation
								JOINT RightFingerBase
								{
									OFFSET 0 0 0
									CHANNELS 3 Zrotation Yrotation Xrotation
									JOINT RightHandIndex1
									{
										OFFSET -0.74732 -0.00000 0.00000
										CHANNELS 3 Zrotation Yrotation Xrotation
										End Site
										{
											OFFSET -0.60251 -0.00000 0.00000
										}
									}
								}
								JOINT RThumb
								{
									OFFSET 0 0 0
									CHANNELS 3 Zrotation Yrotation Xrotation
									End Site
									{
										OFFSET -0.61171 -0.00000 0.61171
									}
								}
							}
						}
					}
				}
			}
		}
	}
}
MOTION
Frames: 5
Frame Time: .0083333
-1.1601 16.1263 23.0765 -0.9242 6.2703 -10.3535 0.0000 0.0000 0.0000 -19.7878 -8.8475 -2.4179 14.6909 19.3103 74.3037 0.5367 -4.7927 -13.0384 1.0548 -6.5303 -18.3312 0.0000 0.0000 0.0000 18.4633 10.5796 -26.1504 -5.1789 -13.5825 41.5899 0.0029 -1.1350 -1.0742 -0.0008 0.1880 -0.5165 -2.0968 -2.6697 12.9239 3.6417 -3.6002 -0.1344 5.7376 -1.6187 -7.0299 -10.2197 -2.7786 -20.3932 5.7519 -2.0734 21.3356 3.4500 -1.1009 10.3779 -0.0000 0.0000 0.0000 -92.5244 0.5371 23.6891 87.6580 -59.9793 -57.9719 -0.0000 0.0000 -15.2112 28.1387 11.6632 6.1707 -7.1250 0.0000 -0.0000 0.8826 43.1530 -0.0402 -0.0000 0.0000 0.0000 80.9067 -20.7325 18.4451 -45.9453 51.2233 -22.9734 0.0000 0.0000 4.1426 -28.7063 26.1306 -13.5599 7.1250 -0.0000 -0.0000 0.6964 -0.7635 0.6871
-1.1617 16.2002 23.2514 -0.4442 6.6608 -10.0948 0.0000 0.0000 0.0000 -20.6394 -9.7437 -3.5821 14.8098 19.3415 74.6632 0.5548 -3.8500 -13.2857 0.9949 -6.3478 -17.7970 0.0000 0.0000 0.0000 18.0533 10.3037 -25.4693 -5.1131 -13.5100 41.3089 0.0019 -1.2883 -1.5651 -0.0072 0.5494 -1.5098 -2.3939 -2.6463 12.7308 3.4556 -3.6261 -0.1572 5.6978 -1.6272 -6.9363 -10.2011 -2.9342 -19.9746 5.6117 -2.3046 21.1639 3.3574 -1.2246 10.2580 -0.0000 0.0000 0.0000 -92.8508 0.5269 23.3768 80.4288 -59.6510 -51.7208 -0.0000 0.0000 -13.7175 27.5052 10.6874 5.5154 -7.1250 0.0000 -0.0000 0.3894 41.9913 -0.0289 -0.0000 0.0000 0.0000 81.4732 -19.2347 16.9725 -43.4372 49.9795 -21.0350 0.0000 0.0000 5.3565 -27.2440 25.6780 -12.5774 7.1250 -0.0000 -0.0000 1.5019 -1.5844 1.4603
-1.1679 16.2728 23.4102 -0.7952 6.9329 -9.9147 0.0000 0.0000 0.0000 -20.3283 -10.5014 -4.9023 14.8929 19.3628 74.9138 0.5721 -3.0867 -13.5683 1.0523 -6.5230 -18.3097 0.0000 0.0000 0.0000 18.6045 10.2339 -24.6243 -4.9814 -13.3629 40.7425 0.0046 -1.7379 -1.9604 -0.0121 0.7116 -1.9555 -1.8919 -2.7080 12.7518 3.5148 -3.6272 -0.2243 5.4814 -1.6394 -7.0470 -10.1070 -3.0564 -19.8273 5.3725 -2.4605 21.1223 3.2311 -1.3183 10.2263 0.0000 -0.0000 0.0000 -93.1995 0.6153 23.1747 74.1647 -59.0310 -46.3308 -0.0000 0.0000 -12.3392 28.1518 11.1039 5.8839 -7.1250 0.0000 -0.0000 0.9400 42.5270 -0.0574 0.0000 -0.0000 0.0000 82.0177 -17.7143 15.3938 -41.0576 48.6841 -19.2298 0.0000 0.0000 6.9523 -26.2294 25.2408 -11.8651 7.1250 -0.0000 -0.0000 2.0509 -2.2711 1.9693
-1.1757 16.3540 23.5750 -1.7528 6.9458 -9.9546 0.0000 0.0000 0.0000 -19.2083 -10.9107 -6.0728 14.9008 19.3648 74.9378 0.5941 -2.6151 -13.9008 1.0924 -6.6422 -18.6597 0.0000 0.0000 0.0000 19.9265 10.3771 -23.4609 -4.8141 -13.1713 40.0133 0.0115 -2.3604 -2.3488 -0.0108 0.6698 -1.8406 -0.8170 -2.7359 12.8755 3.7484 -3.4819 -0.2497 5.1071 -1.5968 -7.2088 -10.1123 -3.1341 -19.8679 5.3440 -2.5616 21.3634 3.2111 -1.3725 10.3300 0.0000 -0.0000 0.0000 -93.5153 0.7646 22.9611 68.2329 -58.1318 -41.2674 -0.0000 0.0000 -11.0376 28.5458 11.7229 6.3072 -7.1250 0.0000 -0.0000 1.2499 43.2673 -0.0535 0.0000 -0.0000 0.0000 82.5127 -16.5527 13.9260 -39.1688 47.5697 -17.8233 0.0000 0.0000 8.1093 -25.6387 24.6555 -11.3219 7.1250 -0.0000 -0.0000 2.3303 -3.0168 2.2062
-1.1736 16.4411 23.7471 -2.2680 6.9529 -9.8338 0.0000 0.0000 0.0000 -18.6413 -11.2454 -7.2547 14.8179 19.3436 74.6875 0.6204 -2.2790 -14.2751 1.1009 -6.6670 -18.7326 0.0000 0.0000 0.0000 20.7366 10.4233 -22.3660 -4.6260 -12.9498 39.1808 0.0187 -2.8441 -2.6170 -0.0097 0.6352 -1.7455 -0.0626 -2.7184 12.7224 3.8187 -3.3393 -0.3088 4.7219 -1.5517 -7.2378 -10.1366 -3.2155 -19.8324 5.4634 -2.7084 21.5939 3.2410 -1.4321 10.4217 0.0000 -0.0000 0.0000 -93.6747 0.9881 22.7217 62.5407 -56.9498 -36.4631 -0.0000 0.0000 -9.6435 29.1516 12.5401 6.9052 -7.1250 0.0000 -0.0000 1.7422 44.2617 -0.0318 0.0000 -0.0000 0.0000 83.0825 -15.7138 12.6570 -37.8102 46.7176 -16.8273 0.0000 0.0000 8.0849 -24.4238 23.6769 -10.3352 7.1250 -0.0000 -0.0000 2.9526 -4.2943 2.7269
